<svg width="150" height="232" viewBox="0 0 150 232" fill="none" xmlns="http://www.w3.org/2000/svg">
<g opacity="0.64">
<path opacity="0.64" d="M75.0003 232C112.362 232 142.65 230.984 142.65 229.731C142.65 228.478 112.362 227.462 75.0003 227.462C37.6384 227.462 7.35059 228.478 7.35059 229.731C7.35059 230.984 37.6384 232 75.0003 232Z" fill="#BBC565"/>
</g>
<path opacity="0.7" d="M74.9996 161.865C115.617 161.865 148.543 129.195 148.543 88.8942C148.543 48.5934 115.617 15.9232 74.9996 15.9232C34.3826 15.9232 1.45605 48.5934 1.45605 88.8942C1.45605 129.195 34.3826 161.865 74.9996 161.865Z" fill="#C7E6EF"/>
<path d="M75 163.31C64.873 163.31 55.059 161.338 45.8031 157.462C36.8739 153.708 28.8566 148.346 21.9691 141.512C15.0817 134.678 9.67786 126.723 5.89383 117.864C1.9873 108.68 0 98.9289 0 88.8942C0 78.8595 1.9873 69.1084 5.89383 59.9246C9.67786 51.0648 15.0817 43.11 21.9691 36.2762C28.8566 29.4423 36.8739 24.0806 45.8031 20.326C55.0454 16.4499 64.873 14.478 75 14.478C85.127 14.478 94.941 16.4499 104.197 20.326C113.126 24.0806 121.143 29.4423 128.031 36.2762C134.918 43.11 140.322 51.0648 144.106 59.9246C148.013 69.0949 150 78.846 150 88.8942C150 98.9424 148.013 108.68 144.106 117.864C140.322 126.723 134.918 134.678 128.031 141.512C121.143 148.346 113.126 153.708 104.197 157.462C94.9546 161.338 85.127 163.31 75 163.31ZM75 17.3548C35.2541 17.3548 2.91289 49.4442 2.91289 88.8807C2.91289 128.317 35.2541 160.407 75 160.407C114.746 160.407 147.087 128.317 147.087 88.8807C147.101 49.4442 114.76 17.3548 75 17.3548Z" fill="#A7CFD8"/>
<path d="M104.973 139.637C105.798 136.167 103.633 132.69 100.136 131.87C96.6387 131.051 93.1344 133.2 92.3086 136.669C91.4829 140.139 93.6484 143.616 97.1455 144.436C100.643 145.255 104.147 143.106 104.973 139.637Z" fill="#EFB90A"/>
<path d="M107.668 151.91C110.209 149.389 110.209 145.301 107.668 142.78C105.127 140.259 101.008 140.259 98.4668 142.78C95.926 145.301 95.926 149.389 98.4668 151.91C101.008 154.431 105.127 154.431 107.668 151.91Z" fill="#FFD400"/>
<path d="M131.059 131.433C131.884 127.963 129.719 124.486 126.222 123.667C122.725 122.847 119.22 124.996 118.395 128.466C117.569 131.936 119.734 135.413 123.231 136.232C126.728 137.051 130.233 134.903 131.059 131.433Z" fill="#EFB90A"/>
<path d="M62.7912 132.906C65.3321 130.385 65.3321 126.298 62.7912 123.777C60.2503 121.256 56.1308 121.256 53.5899 123.777C51.049 126.298 51.049 130.385 53.5899 132.906C56.1308 135.427 60.2503 135.427 62.7912 132.906Z" fill="#EFB90A"/>
<path d="M72.7151 111.543C73.524 108.069 71.3416 104.602 67.8406 103.8C64.3396 102.997 60.8457 105.163 60.0368 108.636C59.228 112.11 61.4104 115.577 64.9114 116.379C68.4124 117.182 71.9063 115.016 72.7151 111.543Z" fill="#FFD400"/>
<path d="M74.4475 134.657C75.2564 131.183 73.074 127.716 69.573 126.914C66.072 126.111 62.5781 128.277 61.7693 131.75C60.9604 135.224 63.1428 138.691 66.6438 139.493C70.1448 140.296 73.6387 138.13 74.4475 134.657Z" fill="#EA7500"/>
<path d="M116.498 112.859C117.324 109.39 115.158 105.913 111.661 105.093C108.164 104.274 104.66 106.423 103.834 109.892C103.008 113.362 105.174 116.839 108.671 117.659C112.168 118.478 115.672 116.329 116.498 112.859Z" fill="#FF8500"/>
<path d="M104.97 106.617C105.795 103.147 103.63 99.67 100.133 98.8506C96.6358 98.0313 93.1315 100.18 92.3057 103.65C91.48 107.12 93.6455 110.597 97.1425 111.416C100.64 112.235 104.144 110.087 104.97 106.617Z" fill="#FFD400"/>
<path d="M68.0687 146.004C68.8775 142.53 66.6951 139.063 63.1941 138.261C59.6931 137.458 56.1992 139.624 55.3904 143.097C54.5815 146.571 56.7639 150.038 60.2649 150.84C63.7659 151.643 67.2598 149.478 68.0687 146.004Z" fill="#EFB90A"/>
<path d="M50.328 140.28C53.6307 138.875 55.16 135.079 53.7438 131.802C52.3277 128.525 48.5024 127.008 45.1997 128.413C41.8971 129.818 40.3677 133.614 41.7839 136.891C43.2 140.168 47.0254 141.685 50.328 140.28Z" fill="#EFB90A"/>
<path d="M54.2474 125.03C54.8993 121.524 52.5631 118.157 49.0294 117.51C45.4956 116.864 42.1026 119.182 41.4508 122.688C40.7989 126.194 43.1351 129.561 46.6688 130.207C50.2026 130.854 53.5956 128.536 54.2474 125.03Z" fill="#35C3EF"/>
<path d="M52.2174 148.453C52.9358 144.96 50.6639 141.55 47.1431 140.837C43.6224 140.125 40.1859 142.379 39.4676 145.872C38.7493 149.365 41.0211 152.775 44.5419 153.488C48.0627 154.201 51.4991 151.946 52.2174 148.453Z" fill="#EA7500"/>
<path d="M94.0146 139.407C94.8404 135.937 92.6748 132.46 89.1778 131.641C85.6807 130.822 82.1764 132.97 81.3506 136.44C80.5249 139.91 82.6904 143.387 86.1875 144.206C89.6845 145.026 93.1889 142.877 94.0146 139.407Z" fill="#9BBA3C"/>
<path d="M84.807 116.546C86.4204 113.36 85.1256 109.48 81.9149 107.879C78.7043 106.278 74.7936 107.563 73.1801 110.749C71.5667 113.934 72.8616 117.815 76.0722 119.416C79.2829 121.016 83.1936 119.732 84.807 116.546Z" fill="#E22727"/>
<path d="M36.5842 123.524C39.125 121.003 39.125 116.916 36.5841 114.395C34.0433 111.874 29.9237 111.874 27.3829 114.395C24.842 116.916 24.842 121.003 27.3829 123.524C29.9237 126.045 34.0433 126.045 36.5842 123.524Z" fill="#EFB90A"/>
<path d="M129.324 113.623C131.865 111.102 131.865 107.015 129.324 104.494C126.784 101.973 122.664 101.973 120.123 104.494C117.582 107.015 117.582 111.102 120.123 113.623C122.664 116.145 126.784 116.145 129.324 113.623Z" fill="#F93838"/>
<path d="M34.004 134.779C34.5883 131.261 32.1877 127.939 28.6421 127.36C25.0966 126.78 21.7487 129.162 21.1644 132.68C20.5801 136.198 22.9807 139.52 26.5263 140.099C30.0718 140.679 33.4197 138.297 34.004 134.779Z" fill="#E22727"/>
<path d="M26.0549 130.247C28.5957 127.726 28.5957 123.639 26.0549 121.118C23.514 118.597 19.3944 118.597 16.8536 121.118C14.3127 123.639 14.3127 127.726 16.8536 130.247C19.3944 132.769 23.514 132.769 26.0549 130.247Z" fill="#9BBA3C"/>
<path d="M32.3297 112.047C33.1723 108.581 31.0237 105.094 27.5306 104.258C24.0375 103.422 20.5227 105.553 19.68 109.019C18.8374 112.485 20.986 115.973 24.4791 116.809C27.9722 117.645 31.487 115.513 32.3297 112.047Z" fill="#F93838"/>
<path d="M93.8505 129.03C94.6763 125.56 92.5108 122.083 89.0137 121.263C85.5166 120.444 82.0123 122.593 81.1866 126.063C80.3608 129.532 82.5263 133.01 86.0234 133.829C89.5204 134.648 93.0248 132.499 93.8505 129.03Z" fill="#F93838"/>
<path d="M82.4797 143.232C85.6922 141.634 86.9911 137.755 85.3809 134.568C83.7707 131.38 79.8612 130.091 76.6487 131.689C73.4362 133.287 72.1373 137.166 73.7475 140.353C75.3577 143.541 79.2672 144.829 82.4797 143.232Z" fill="#E22727"/>
<path d="M125.201 122.177C126.027 118.707 123.861 115.23 120.364 114.411C116.867 113.591 113.363 115.74 112.537 119.21C111.711 122.68 113.877 126.157 117.374 126.976C120.871 127.795 124.375 125.647 125.201 122.177Z" fill="#EA7500"/>
<path d="M60.8039 151.874C63.3447 149.353 63.3447 145.265 60.8039 142.744C58.263 140.223 54.1435 140.223 51.6026 142.744C49.0617 145.265 49.0617 149.353 51.6026 151.874C54.1434 154.395 58.263 154.395 60.8039 151.874Z" fill="#35C3EF"/>
<path d="M96.2226 116.248C97.0483 112.778 94.8828 109.301 91.3858 108.482C87.8887 107.662 84.3844 109.811 83.5586 113.281C82.7329 116.751 84.8984 120.228 88.3955 121.047C91.8925 121.866 95.3968 119.718 96.2226 116.248Z" fill="#35C3EF"/>
<path d="M64.6548 129.249C68.2481 129.249 71.1611 126.359 71.1611 122.793C71.1611 119.228 68.2481 116.338 64.6548 116.338C61.0614 116.338 58.1484 119.228 58.1484 122.793C58.1484 126.359 61.0614 129.249 64.6548 129.249Z" fill="#20ADCE"/>
<path d="M121.847 143.237C124.388 140.716 124.388 136.629 121.847 134.108C119.306 131.587 115.186 131.587 112.646 134.108C110.105 136.629 110.105 140.716 112.646 143.237C115.186 145.758 119.306 145.758 121.847 143.237Z" fill="#20ADCE"/>
<path d="M106.355 130.281C106.931 126.762 104.522 123.446 100.975 122.874C97.4278 122.303 94.0857 124.693 93.5101 128.213C92.9344 131.732 95.3432 135.048 98.8902 135.619C102.437 136.191 105.779 133.801 106.355 130.281Z" fill="#EA7500"/>
<path d="M113.536 141.07C116.077 138.549 116.077 134.461 113.536 131.94C110.995 129.419 106.876 129.419 104.335 131.94C101.794 134.461 101.794 138.549 104.335 141.07C106.876 143.591 110.995 143.591 113.536 141.07Z" fill="#35C3EF"/>
<path d="M60.9797 122.617C63.5205 120.096 63.5205 116.009 60.9797 113.487C58.4388 110.966 54.3192 110.966 51.7784 113.487C49.2375 116.009 49.2375 120.096 51.7784 122.617C54.3192 125.138 58.4388 125.138 60.9797 122.617Z" fill="#F93838"/>
<path d="M142.463 111.628C145.004 109.107 145.004 105.019 142.463 102.498C139.922 99.9769 135.803 99.9769 133.262 102.498C130.721 105.019 130.721 109.107 133.262 111.628C135.803 114.149 139.922 114.149 142.463 111.628Z" fill="#35C3EF"/>
<path d="M20.049 121.042C22.5899 118.521 22.5899 114.434 20.049 111.913C17.5081 109.391 13.3886 109.391 10.8477 111.913C8.30685 114.434 8.30685 118.521 10.8477 121.042C13.3886 123.563 17.5081 123.563 20.049 121.042Z" fill="#20ADCE"/>
<path d="M79.5734 25.3366H70.4264C69.8955 25.3366 69.46 24.9044 69.46 24.3777V22.7435H80.5262V24.3777C80.5398 24.9179 80.1042 25.3366 79.5734 25.3366Z" fill="#A39896"/>
<path d="M76.3882 24.2021H73.625V153.802H76.3882V24.2021Z" fill="#A39896"/>
<path d="M74.3465 153.249C74.1967 153.249 74.0742 153.127 74.0742 152.978V26.2955C74.0742 26.1469 74.1967 26.0254 74.3465 26.0254C74.4962 26.0254 74.6187 26.1469 74.6187 26.2955V152.992C74.6187 153.127 74.4962 153.249 74.3465 153.249Z" fill="#CBC3C1"/>
<path d="M75.5572 153.249H75.5028C75.3667 153.249 75.2578 153.141 75.2578 153.006V26.255C75.2578 26.1199 75.3667 26.0119 75.5028 26.0119H75.5572C75.6934 26.0119 75.8023 26.1199 75.8023 26.255V153.006C75.7886 153.141 75.6934 153.249 75.5572 153.249Z" fill="#827877"/>
<path d="M76.0616 22.757V24.2696C76.0616 24.8639 75.5716 25.3501 74.9727 25.3501H79.4509C80.0498 25.3501 80.5398 24.8639 80.5398 24.2696V22.757H76.0616Z" fill="#827877"/>
<path d="M76.3882 25.3366H73.625V26.7007H76.3882V25.3366Z" fill="#827877"/>
<path d="M81.2893 126.356C82.0454 122.87 79.8105 119.436 76.2977 118.686C72.7848 117.936 69.3242 120.154 68.5682 123.639C67.8121 127.125 70.047 130.558 73.5598 131.308C77.0727 132.059 80.5333 129.841 81.2893 126.356Z" fill="#B1D658"/>
<path d="M104.691 119.32C105.517 115.85 103.352 112.373 99.8545 111.554C96.3575 110.735 92.8531 112.883 92.0274 116.353C91.2016 119.823 93.3672 123.3 96.8642 124.119C100.361 124.939 103.866 122.79 104.691 119.32Z" fill="#B1D658"/>
<path d="M60.6031 106.863C61.4458 103.397 59.2971 99.9094 55.804 99.0733C52.3109 98.2372 48.7961 100.369 47.9535 103.835C47.1108 107.301 49.2595 110.788 52.7526 111.624C56.2457 112.461 59.7605 110.329 60.6031 106.863Z" fill="#B1D658"/>
<path d="M75.8449 145.982C78.3857 143.461 78.3857 139.373 75.8449 136.852C73.304 134.331 69.1845 134.331 66.6436 136.852C64.1027 139.373 64.1027 143.461 66.6436 145.982C69.1845 148.503 73.304 148.503 75.8449 145.982Z" fill="#FFD400"/>
<path d="M39.9992 133.81C42.54 131.289 42.54 127.201 39.9992 124.68C37.4583 122.159 33.3388 122.159 30.7979 124.68C28.257 127.201 28.257 131.289 30.7979 133.81C33.3388 136.331 37.4583 136.331 39.9992 133.81Z" fill="#EA7500"/>
<path d="M17.5812 113.027C20.1221 110.505 20.1221 106.418 17.5812 103.897C15.0404 101.376 10.9208 101.376 8.37994 103.897C5.83907 106.418 5.83907 110.505 8.37994 113.027C10.9208 115.548 15.0404 115.548 17.5812 113.027Z" fill="#FF8500"/>
<path d="M49.1966 113.272C50.0054 109.798 47.823 106.332 44.322 105.529C40.821 104.726 37.3272 106.892 36.5183 110.366C35.7094 113.839 37.8918 117.306 41.3929 118.109C44.8939 118.911 48.3877 116.746 49.1966 113.272Z" fill="#EA7500"/>
<path d="M42.6725 105.141C43.5151 101.675 41.3665 98.188 37.8734 97.352C34.3803 96.5159 30.8655 98.6478 30.0228 102.114C29.1802 105.58 31.3288 109.067 34.8219 109.903C38.315 110.739 41.8298 108.607 42.6725 105.141Z" fill="#FFD400"/>
<path d="M83.3109 150.269C84.933 147.088 83.6486 143.204 80.4423 141.594C77.2359 139.985 73.3217 141.259 71.6997 144.441C70.0776 147.622 71.362 151.506 74.5683 153.115C77.7747 154.725 81.6889 153.45 83.3109 150.269Z" fill="#B1D658"/>
<path d="M58.1056 136.704C60.6465 134.182 60.6465 130.095 58.1056 127.574C55.5648 125.053 51.4452 125.053 48.9044 127.574C46.3635 130.095 46.3635 134.182 48.9044 136.704C51.4452 139.225 55.5648 139.225 58.1056 136.704Z" fill="#9BBA3C"/>
<path d="M40.3 145.673C42.8408 143.152 42.8408 139.064 40.3 136.543C37.7591 134.022 33.6396 134.022 31.0987 136.543C28.5578 139.064 28.5578 143.152 31.0987 145.673C33.6396 148.194 37.7591 148.194 40.3 145.673Z" fill="#B1D658"/>
<path d="M94.2651 148.536C94.8408 145.017 92.432 141.701 88.885 141.129C85.338 140.558 81.9959 142.948 81.4202 146.468C80.8446 149.987 83.2533 153.303 86.8003 153.874C90.3474 154.445 93.6894 152.055 94.2651 148.536Z" fill="#FF8500"/>
<path d="M118.149 125.605C118.975 122.135 116.81 118.658 113.313 117.838C109.815 117.019 106.311 119.168 105.485 122.638C104.66 126.107 106.825 129.584 110.322 130.404C113.819 131.223 117.324 129.074 118.149 125.605Z" fill="#B1D658"/>
<path d="M137.38 123.833C139.921 121.311 139.921 117.224 137.38 114.703C134.839 112.182 130.72 112.182 128.179 114.703C125.638 117.224 125.638 121.311 128.179 123.833C130.72 126.354 134.839 126.354 137.38 123.833Z" fill="#FF8500"/>
<path d="M107.025 134.69C107.997 133.867 108.418 132.772 107.964 132.244C107.511 131.716 106.355 131.955 105.382 132.778C104.409 133.601 103.989 134.696 104.442 135.223C104.896 135.751 106.052 135.512 107.025 134.69Z" fill="#5ED4EF"/>
<path d="M88.3498 113.455C89.3224 112.632 89.7431 111.538 89.2895 111.01C88.8359 110.482 87.6798 110.721 86.7072 111.543C85.7347 112.366 85.314 113.461 85.7676 113.989C86.2212 114.517 87.3773 114.278 88.3498 113.455Z" fill="#5ED4EF"/>
<path d="M86.8693 123.604C87.3185 124.13 86.8965 125.224 85.9301 126.048C84.9637 126.872 83.8067 127.102 83.3575 126.575C82.9083 126.048 83.3303 124.954 84.2967 124.13C85.2631 123.32 86.4201 123.077 86.8693 123.604Z" fill="#FF8D8D"/>
<path d="M53.1457 103.978C54.1183 103.155 54.5389 102.06 54.0854 101.533C53.6318 101.005 52.4757 101.244 51.5031 102.066C50.5306 102.889 50.1099 103.984 50.5635 104.512C51.0171 105.04 52.1732 104.801 53.1457 103.978Z" fill="#D6EA98"/>
<path d="M73.8342 123.383C74.8067 122.56 75.2274 121.465 74.7738 120.937C74.3202 120.409 73.1641 120.648 72.1916 121.471C71.2191 122.294 70.7984 123.389 71.252 123.917C71.7056 124.444 72.8617 124.205 73.8342 123.383Z" fill="#D6EA98"/>
<path d="M110.593 122.838C111.566 122.015 111.986 120.921 111.533 120.393C111.079 119.865 109.923 120.104 108.95 120.926C107.978 121.749 107.557 122.844 108.011 123.372C108.464 123.9 109.62 123.661 110.593 122.838Z" fill="#D6EA98"/>
<path d="M34.4104 139.536C35.3829 138.714 35.8036 137.619 35.35 137.091C34.8964 136.563 33.7403 136.802 32.7678 137.625C31.7952 138.447 31.3745 139.542 31.8281 140.07C32.2817 140.598 33.4378 140.359 34.4104 139.536Z" fill="#D6EA98"/>
<path d="M76.4397 145.966C77.4122 145.144 77.8329 144.049 77.3793 143.521C76.9257 142.993 75.7696 143.232 74.7971 144.055C73.8245 144.877 73.4038 145.972 73.8574 146.5C74.311 147.028 75.4671 146.789 76.4397 145.966Z" fill="#D6EA98"/>
<path d="M97.6359 114.217C98.0851 114.744 97.6631 115.838 96.6967 116.662C95.7303 117.486 94.5733 117.715 94.1241 117.188C93.6749 116.662 94.0969 115.568 95.0633 114.744C96.0297 113.92 97.1731 113.691 97.6359 114.217Z" fill="#D6EA98"/>
<path d="M123.247 107.575C124.22 106.753 124.64 105.658 124.187 105.13C123.733 104.602 122.577 104.841 121.605 105.664C120.632 106.486 120.211 107.581 120.665 108.109C121.119 108.637 122.275 108.398 123.247 107.575Z" fill="#FF8D8D"/>
<path d="M24.8879 109.227C25.8605 108.404 26.2811 107.31 25.8275 106.782C25.374 106.254 24.2178 106.493 23.2453 107.315C22.2728 108.138 21.8521 109.233 22.3057 109.761C22.7593 110.289 23.9154 110.05 24.8879 109.227Z" fill="#FF8D8D"/>
<path d="M54.9211 117.115C55.8937 116.292 56.3143 115.197 55.8607 114.669C55.4072 114.141 54.251 114.38 53.2785 115.203C52.306 116.026 51.8853 117.121 52.3389 117.649C52.7925 118.176 53.9486 117.937 54.9211 117.115Z" fill="#FF8D8D"/>
<path d="M97.0617 103.852C98.0343 103.029 98.455 101.934 98.0014 101.406C97.5478 100.878 96.3917 101.117 95.4191 101.94C94.4466 102.763 94.0259 103.858 94.4795 104.385C94.9331 104.913 96.0892 104.674 97.0617 103.852Z" fill="#FFE98D"/>
<path d="M65.2873 109.15C66.2599 108.328 66.6805 107.233 66.227 106.705C65.7734 106.177 64.6173 106.416 63.6447 107.239C62.6722 108.061 62.2515 109.156 62.7051 109.684C63.1587 110.212 64.3148 109.973 65.2873 109.15Z" fill="#FFE98D"/>
<path d="M102.313 145.881C103.285 145.059 103.706 143.964 103.252 143.436C102.799 142.908 101.643 143.147 100.67 143.97C99.6976 144.793 99.2769 145.887 99.7305 146.415C100.184 146.943 101.34 146.704 102.313 145.881Z" fill="#FFE98D"/>
<path d="M70.5178 139.631C71.4903 138.808 71.911 137.713 71.4574 137.185C71.0038 136.657 69.8477 136.896 68.8752 137.719C67.9027 138.542 67.482 139.636 67.9356 140.164C68.3892 140.692 69.5453 140.453 70.5178 139.631Z" fill="#FFE98D"/>
<path d="M35.5812 100.131C36.0304 100.658 35.6084 101.752 34.642 102.575C33.6756 103.399 32.5186 103.629 32.0694 103.102C31.6202 102.575 32.0422 101.481 33.0086 100.658C33.975 99.8472 35.132 99.6041 35.5812 100.131Z" fill="#FFE98D"/>
<path d="M12.591 104.439C13.0402 104.966 12.6182 106.06 11.6518 106.884C10.6853 107.708 9.52835 107.937 9.07917 107.41C8.62999 106.884 9.05195 105.79 10.0184 104.966C10.9848 104.156 12.1418 103.912 12.591 104.439Z" fill="#FFA750"/>
<path d="M108.916 109.749C109.889 108.926 110.309 107.832 109.856 107.304C109.402 106.776 108.246 107.015 107.274 107.838C106.301 108.66 105.88 109.755 106.334 110.283C106.788 110.811 107.944 110.572 108.916 109.749Z" fill="#FFA750"/>
<path d="M86.47 146.468C87.4425 145.645 87.8632 144.55 87.4096 144.022C86.956 143.494 85.7999 143.733 84.8273 144.556C83.8548 145.379 83.4341 146.474 83.8877 147.002C84.3413 147.53 85.4974 147.291 86.47 146.468Z" fill="#FFA750"/>
<path d="M131.793 117.827C132.766 117.004 133.186 115.909 132.733 115.381C132.279 114.853 131.123 115.092 130.151 115.915C129.178 116.738 128.757 117.832 129.211 118.36C129.665 118.888 130.821 118.649 131.793 117.827Z" fill="#FFA750"/>
<path d="M55.2628 143.646C55.712 144.173 55.29 145.267 54.3236 146.091C53.3572 146.914 52.2002 147.144 51.751 146.617C51.3019 146.091 51.7238 144.997 52.6902 144.173C53.6567 143.362 54.8136 143.119 55.2628 143.646Z" fill="#5ED4EF"/>
<path d="M137.341 102.602C137.79 103.129 137.368 104.223 136.402 105.047C135.435 105.871 134.278 106.1 133.829 105.574C133.38 105.047 133.802 103.953 134.768 103.129C135.735 102.305 136.878 102.076 137.341 102.602Z" fill="#5ED4EF"/>
<path d="M47.0421 119.728C47.4913 120.254 47.0694 121.348 46.1029 122.172C45.1365 122.996 43.9795 123.226 43.5303 122.699C43.0812 122.172 43.5031 121.078 44.4695 120.254C45.4224 119.444 46.5794 119.201 47.0421 119.728Z" fill="#5ED4EF"/>
<path d="M118.598 222.681H31.4155C29.8229 222.681 28.5979 224.342 28.7748 222.776L36.0843 157.003H113.915L121.225 222.776C121.415 224.342 120.19 222.681 118.598 222.681Z" fill="#FF3159"/>
<path d="M25.7127 222.776C25.5222 224.342 26.7608 222.681 28.3534 222.681H25.7264L25.7127 222.776Z" fill="#ED1B4D"/>
<path d="M118.163 222.776L110.853 157.003H79.2881L86.5839 222.681H115.522C117.128 222.681 118.353 224.342 118.163 222.776Z" fill="#ED1B4D"/>
<path d="M109.111 222.776L101.802 157.003H70.2363L77.5322 222.681H106.47C108.063 222.681 109.302 224.342 109.111 222.776Z" fill="#ED1B4D"/>
<path d="M90.2583 195.926H57.4134C55.6303 195.926 54.1875 194.495 54.1875 192.726V160.136C54.1875 158.367 55.6303 156.936 57.4134 156.936H90.2583C92.0414 156.936 93.4842 158.367 93.4842 160.136V192.726C93.4842 194.495 92.0414 195.926 90.2583 195.926Z" fill="#ED1B4D"/>
<path d="M116.815 222.776L109.505 157.003H100.767L108.062 222.681H114.174C115.767 222.681 117.005 224.342 116.815 222.776Z" fill="#ED1B4D"/>
<g opacity="0.5">
<path opacity="0.5" d="M40.5213 189.876L37.6765 215.442C37.5676 216.36 36.7917 217.063 35.8661 217.063C34.7772 217.063 33.9333 216.131 34.0558 215.05L36.9006 189.484C37.0095 188.566 37.7854 187.864 38.711 187.864C39.7863 187.864 40.6438 188.795 40.5213 189.876Z" fill="#FF8DAE"/>
</g>
<g opacity="0.5">
<path opacity="0.5" d="M42.5089 171.927L41.2702 183.042C41.1613 183.96 40.3855 184.663 39.4599 184.663C38.3709 184.663 37.527 183.731 37.6495 182.65L38.8882 171.535C38.9971 170.617 39.7729 169.915 40.6985 169.915C41.7875 169.915 42.6314 170.86 42.5089 171.927Z" fill="#FF8DAE"/>
</g>
<path d="M98.2766 220.601H67.6641V203.179C67.6641 201.504 69.0252 200.154 70.7131 200.154H95.2276C96.9154 200.154 98.2766 201.504 98.2766 203.179V220.601Z" fill="#ED1B4D"/>
<path d="M90.3137 220.601H59.7012V203.179C59.7012 201.504 61.0623 200.154 62.7502 200.154H87.2647C88.9525 200.154 90.3137 201.504 90.3137 203.179V220.601Z" fill="#FF8DAE"/>
<path d="M114.433 162.068H35.5669C33.3074 162.068 31.4834 160.258 31.4834 158.016V157.003C31.4834 154.761 33.3074 152.951 35.5669 152.951H114.433C116.692 152.951 118.516 154.761 118.516 157.003V158.016C118.516 160.258 116.692 162.068 114.433 162.068Z" fill="#CBC3C1"/>
<path d="M36.0841 155.342H113.915C116.039 155.342 117.822 156.76 118.353 158.705C118.462 158.327 118.516 157.922 118.516 157.516C118.516 154.991 116.461 152.951 113.915 152.951H36.0841C33.5388 152.951 31.4834 154.991 31.4834 157.516C31.4834 157.935 31.5378 158.327 31.6467 158.705C32.1776 156.76 33.9607 155.342 36.0841 155.342Z" fill="#E9E1DE"/>
<path d="M114.909 165.917H93.416V162.068H114.487L114.909 165.917Z" fill="#ED1B4D"/>
<path d="M56.3386 165.917H35.0908L35.5264 162.068H55.9166L56.3386 165.917Z" fill="#ED1B4D"/>
<path d="M109.723 22.757H40.2764V20.7312C40.2764 18.4892 42.1003 16.6795 44.3599 16.6795H105.639C107.899 16.6795 109.723 18.4892 109.723 20.7312V22.757Z" fill="#CBC3C1"/>
<path d="M105.136 16.6795H44.8771C42.3317 16.6795 40.2764 18.7188 40.2764 21.2444V22.7705H40.3308C40.6575 20.5691 42.5631 18.8674 44.8771 18.8674H105.136C107.45 18.8674 109.369 20.5691 109.682 22.7705H109.736V21.2444C109.723 18.7188 107.667 16.6795 105.136 16.6795Z" fill="#E9E1DE"/>
<path d="M105.137 16.6795H44.8779L46.4705 13.6407C48.0767 10.5614 51.3707 8.6301 54.9777 8.6301H95.0367C98.6438 8.6301 101.924 10.5749 103.544 13.6407L105.137 16.6795Z" fill="#FF3159"/>
<path d="M46.3071 13.9378L44.8779 16.6795H105.137L103.694 13.9378H46.3071Z" fill="#ED1B4D"/>
<path d="M90.8305 192.955H59.1699C58.081 192.955 57.1826 192.077 57.1826 190.983V159.569C57.1826 158.489 58.0674 157.597 59.1699 157.597H90.8305C91.9194 157.597 92.8178 158.475 92.8178 159.569V190.983C92.8178 192.064 91.933 192.955 90.8305 192.955Z" fill="#ADA4A1"/>
<path d="M90.5851 193.712H59.4281C57.7811 193.712 56.4336 192.374 56.4336 190.74V159.826C56.4336 158.192 57.7811 156.855 59.4281 156.855H90.5851C92.2321 156.855 93.5797 158.192 93.5797 159.826V190.74C93.5797 192.374 92.2321 193.712 90.5851 193.712ZM59.4281 158.367C58.6251 158.367 57.9581 159.015 57.9581 159.826V190.74C57.9581 191.537 58.6115 192.199 59.4281 192.199H90.5851C91.3882 192.199 92.0552 191.551 92.0552 190.74V159.826C92.0552 159.029 91.4018 158.367 90.5851 158.367H59.4281Z" fill="#DDD6D4"/>
<path d="M84.5934 184.8C89.8931 179.541 89.8931 171.016 84.5934 165.757C79.2937 160.499 70.7012 160.499 65.4016 165.757C60.1019 171.016 60.1019 179.541 65.4016 184.8C70.7012 190.058 79.2937 190.058 84.5934 184.8Z" fill="#DDD6D4"/>
<path d="M74.9993 189.43C67.1318 189.43 60.7344 183.083 60.7344 175.276C60.7344 167.47 67.1318 161.122 74.9993 161.122C82.8669 161.122 89.2643 167.47 89.2643 175.276C89.2643 183.083 82.8669 189.43 74.9993 189.43ZM74.9993 162.486C67.8941 162.486 62.1091 168.226 62.1091 175.276C62.1091 182.326 67.8941 188.066 74.9993 188.066C82.1046 188.066 87.8895 182.326 87.8895 175.276C87.8895 168.226 82.1046 162.486 74.9993 162.486Z" fill="#BAB3B1"/>
<path d="M75.9665 217.752H74.0473C69.8413 217.752 66.4248 214.362 66.4248 210.188V200.154H83.5891V210.188C83.5891 214.362 80.1725 217.752 75.9665 217.752Z" fill="#282F39"/>
<path d="M73.1157 164.38L71.8867 175.283L73.1157 186.186C73.1292 186.54 73.845 186.826 74.7094 186.826L75.3172 186.826C76.1815 186.826 76.8838 186.54 76.9108 186.186L78.1398 175.283L76.9108 164.38C76.8973 164.026 76.1815 163.74 75.3172 163.74L74.7094 163.74C73.845 163.754 73.1292 164.026 73.1157 164.38Z" fill="#ED1B4D"/>
<path d="M120.558 229.731H29.4419C27.1824 229.731 25.3584 227.921 25.3584 225.679V224.666C25.3584 222.425 27.1824 220.615 29.4419 220.615H120.558C122.818 220.615 124.642 222.425 124.642 224.666V225.679C124.642 227.921 122.818 229.731 120.558 229.731Z" fill="#CBC3C1"/>
<path d="M120.054 220.601H29.9591C27.4138 220.601 25.3584 222.641 25.3584 225.166C25.3584 225.598 25.4265 226.017 25.5353 226.409C26.0798 224.491 27.8493 223.1 29.9591 223.1H120.054C122.151 223.1 123.934 224.504 124.478 226.409C124.587 226.017 124.655 225.598 124.655 225.166C124.642 222.654 122.586 220.601 120.054 220.601Z" fill="#E9E1DE"/>
<path d="M76.123 175.001C75.9585 174.376 75.3225 174.004 74.7025 174.17C74.0825 174.336 73.7133 174.977 73.8779 175.601C74.0424 176.226 74.6784 176.598 75.2984 176.432C75.9184 176.267 76.2876 175.626 76.123 175.001Z" fill="#282F39"/>
<path d="M74.9996 12.4522C78.4651 12.4522 81.2745 9.66468 81.2745 6.2261C81.2745 2.78752 78.4651 0 74.9996 0C71.534 0 68.7246 2.78752 68.7246 6.2261C68.7246 9.66468 71.534 12.4522 74.9996 12.4522Z" fill="#FF3159"/>
<path d="M84.2831 156.774L81.9283 159.11L81.6152 159.407H68.3847L68.0717 159.11L65.7305 156.774H84.2831Z" fill="#282F39"/>
<g opacity="0.6">
<g opacity="0.6">
<path opacity="0.6" d="M110.907 36.3707L107.205 39.9767C120.79 52.0778 129.338 69.6486 129.338 89.1913C129.338 110.679 119.02 129.762 103.026 141.85L106.035 145.348C124.914 133.665 137.464 112.88 137.464 89.1913C137.464 67.6093 127.037 48.4312 110.907 36.3707Z" fill="#A7CFD8"/>
</g>
</g>
<path d="M76.6955 215.385C80.1652 214.458 82.2203 210.915 81.2857 207.472C80.3511 204.029 76.7806 201.99 73.3109 202.918C69.8411 203.845 67.786 207.388 68.7206 210.83C69.6553 214.273 73.2257 216.312 76.6955 215.385Z" fill="black"/>
<g opacity="0.44">
<g opacity="0.44">
<path opacity="0.44" d="M30.6125 72.0661C35.0091 62.4231 42.3049 54.3602 51.3838 48.9445L38.1533 36.0601C28.6388 43.1775 21.1116 52.7666 16.5381 63.8682C21.5744 66.7854 26.5835 69.7026 30.6125 72.0661Z" fill="white"/>
</g>
</g>
<g opacity="0.44">
<g opacity="0.44">
<path opacity="0.44" d="M25.9705 93.4456C25.9705 87.5436 26.9642 81.8577 28.8018 76.5635L14.2101 70.5265C12.5087 76.3609 11.5967 82.5195 11.5967 88.8942C11.5967 112.583 24.1602 133.368 43.0259 145.051L49.8998 137.042C35.4987 127.804 25.9705 111.732 25.9705 93.4456Z" fill="white"/>
</g>
</g>
<path d="M89.3874 162.014C89.9136 162.014 90.3402 161.59 90.3402 161.068C90.3402 160.546 89.9136 160.123 89.3874 160.123C88.8612 160.123 88.4346 160.546 88.4346 161.068C88.4346 161.59 88.8612 162.014 89.3874 162.014Z" fill="#6E7A89"/>
<path d="M89.3874 190.43C89.9136 190.43 90.3402 190.006 90.3402 189.484C90.3402 188.962 89.9136 188.539 89.3874 188.539C88.8612 188.539 88.4346 188.962 88.4346 189.484C88.4346 190.006 88.8612 190.43 89.3874 190.43Z" fill="#6E7A89"/>
<path d="M60.6257 162.014C61.1519 162.014 61.5785 161.59 61.5785 161.068C61.5785 160.546 61.1519 160.123 60.6257 160.123C60.0994 160.123 59.6729 160.546 59.6729 161.068C59.6729 161.59 60.0994 162.014 60.6257 162.014Z" fill="#6E7A89"/>
<path d="M60.6257 190.43C61.1519 190.43 61.5785 190.006 61.5785 189.484C61.5785 188.962 61.1519 188.539 60.6257 188.539C60.0994 188.539 59.6729 188.962 59.6729 189.484C59.6729 190.006 60.0994 190.43 60.6257 190.43Z" fill="#6E7A89"/>
<g opacity="0.5">
<path opacity="0.5" d="M73.7207 4.70209C74.8816 3.71925 75.4627 2.50392 75.0186 1.98758C74.5746 1.47125 73.2735 1.84943 72.1127 2.83227C70.9518 3.81512 70.3707 5.03045 70.8148 5.54678C71.2588 6.06312 72.5598 5.68494 73.7207 4.70209Z" fill="#FF8DAE"/>
</g>
<path d="M73.7882 148.387L75.0541 148.616C75.5169 148.697 75.5169 149.359 75.0541 149.44L73.7882 149.67C73.0123 149.805 72.4134 150.412 72.2773 151.169L72.0459 152.425C71.9642 152.884 71.2973 152.884 71.2156 152.425L70.9842 151.169C70.8481 150.399 70.2356 149.805 69.4733 149.67L68.2074 149.44C67.7447 149.359 67.7447 148.697 68.2074 148.616L69.4733 148.387C70.2492 148.251 70.8481 147.644 70.9842 146.887L71.2156 145.631C71.2973 145.172 71.9642 145.172 72.0459 145.631L72.2773 146.887C72.4134 147.644 73.0123 148.251 73.7882 148.387Z" fill="white"/>
<path d="M24.0655 37.5862L26.7606 38.0724C27.7406 38.248 27.7406 39.6391 26.7606 39.8146L24.0655 40.3008C22.4321 40.598 21.1526 41.854 20.8667 43.4747L20.3767 46.1488C20.1998 47.1212 18.7978 47.1212 18.6208 46.1488L18.1308 43.4747C17.8314 41.854 16.5655 40.5845 14.9321 40.3008L12.237 39.8146C11.2569 39.6391 11.2569 38.248 12.237 38.0724L14.9321 37.5862C16.5655 37.2891 17.845 36.0331 18.1308 34.4124L18.6208 31.7383C18.7978 30.7659 20.1998 30.7659 20.3767 31.7383L20.8667 34.4124C21.1526 36.0331 22.4321 37.2891 24.0655 37.5862Z" fill="white"/>
<path d="M17.1913 56.0214L18.2122 56.2105C18.5797 56.278 18.5797 56.8048 18.2122 56.8723L17.1913 57.0614C16.5788 57.1694 16.0888 57.6556 15.9799 58.2634L15.7893 59.2763C15.7212 59.6409 15.1904 59.6409 15.1223 59.2763L14.9318 58.2634C14.8229 57.6556 14.3329 57.1694 13.7203 57.0614L12.6995 56.8723C12.3319 56.8048 12.3319 56.278 12.6995 56.2105L13.7203 56.0214C14.3329 55.9134 14.8229 55.4272 14.9318 54.8194L15.1223 53.8065C15.1904 53.4418 15.7212 53.4418 15.7893 53.8065L15.9799 54.8194C16.0888 55.4272 16.5652 55.9134 17.1913 56.0214Z" fill="white"/>
</svg>
