<svg width="148" height="231" viewBox="0 0 148 231" fill="none" xmlns="http://www.w3.org/2000/svg">
<path d="M74.0002 161.215C114.097 161.215 146.602 128.67 146.602 88.5231C146.602 48.3763 114.097 15.8308 74.0002 15.8308C33.9033 15.8308 1.39844 48.3763 1.39844 88.5231C1.39844 128.67 33.9033 161.215 74.0002 161.215Z" fill="#C7E6EF"/>
<path d="M74 162.615C63.9971 162.615 54.3169 160.677 45.1744 156.8C36.3546 153.031 28.3953 147.754 21.6192 140.969C14.843 134.185 9.46512 126.215 5.80814 117.385C1.93605 108.231 0 98.5385 0 88.5231C0 78.5077 1.93605 68.8154 5.80814 59.6615C9.57267 50.8308 14.843 42.8616 21.6192 36.0769C28.3953 29.2923 36.3546 23.9077 45.1744 20.2462C54.3169 16.3692 63.9971 14.4308 74 14.4308C84.0029 14.4308 93.6831 16.3692 102.826 20.2462C111.645 24.0154 119.605 29.2923 126.381 36.0769C133.157 42.8616 138.535 50.8308 142.192 59.6615C146.064 68.8154 148 78.5077 148 88.5231C148 98.5385 146.064 108.231 142.192 117.385C138.427 126.215 133.157 134.185 126.381 140.969C119.605 147.754 111.645 153.138 102.826 156.8C93.6831 160.677 84.0029 162.615 74 162.615ZM74 17.2308C34.7413 17.2308 2.90407 49.2154 2.90407 88.5231C2.90407 127.831 34.8488 159.708 74 159.708C113.151 159.708 145.203 127.831 145.203 88.5231C145.203 49.2154 113.259 17.2308 74 17.2308Z" fill="#A7CFD8"/>
<path d="M108.311 22.6154H39.7969C39.7969 19.2769 42.4858 16.5846 45.8201 16.5846H102.181C105.622 16.5846 108.311 19.2769 108.311 22.6154Z" fill="#CBC3C1"/>
<path d="M103.794 16.5846H44.3143C41.8405 16.5846 39.7969 18.6307 39.7969 21.1077V22.6154C40.1195 20.4615 42.0556 18.7384 44.3143 18.7384H103.794C106.053 18.7384 107.989 20.4615 108.311 22.6154V21.1077C108.311 18.6307 106.268 16.5846 103.794 16.5846Z" fill="#E9E1DE"/>
<path d="M103.794 16.5846H44.3145L45.9278 13.5692C47.4336 10.5538 50.6604 8.61536 54.2098 8.61536H93.6836C97.2331 8.61536 100.46 10.5538 102.073 13.5692L103.794 16.5846Z" fill="#EC3226"/>
<path d="M45.7127 13.8923L44.3145 16.5846H103.794L102.288 13.8923H45.7127Z" fill="#C11A16"/>
<path d="M74.0001 12.4923C77.4455 12.4923 80.2385 9.69581 80.2385 6.24615C80.2385 2.7965 77.4455 0 74.0001 0C70.5547 0 67.7617 2.7965 67.7617 6.24615C67.7617 9.69581 70.5547 12.4923 74.0001 12.4923Z" fill="#EC3226"/>
<g opacity="0.5">
<path opacity="0.5" d="M72.7338 4.66358C73.8635 3.69842 74.4354 2.51255 74.0113 2.01487C73.5871 1.51719 72.3275 1.89615 71.1978 2.86131C70.0681 3.82647 69.4962 5.01234 69.9203 5.51002C70.3445 6.00771 71.6041 5.62874 72.7338 4.66358Z" fill="#FF8DAE"/>
</g>
<path d="M32.812 105.161C34.0518 100.016 30.8906 94.8379 25.7512 93.5966C20.6119 92.3553 15.4406 95.5204 14.2008 100.666C12.9611 105.812 16.1223 110.99 21.2617 112.231C26.401 113.472 31.5723 110.307 32.812 105.161Z" fill="#F93838"/>
<path d="M21.8552 100.992C23.3018 99.7569 23.9433 98.1321 23.2881 97.3626C22.6329 96.5932 20.9291 96.9705 19.4825 98.2053C18.036 99.4401 17.3944 101.065 18.0496 101.834C18.7048 102.604 20.4086 102.227 21.8552 100.992Z" fill="#FF8D8D"/>
<path d="M31.4067 91.3231C36.6935 91.3231 40.9793 87.0319 40.9793 81.7385C40.9793 76.445 36.6935 72.1539 31.4067 72.1539C26.1198 72.1539 21.834 76.445 21.834 81.7385C21.834 87.0319 26.1198 91.3231 31.4067 91.3231Z" fill="#B1D658"/>
<path d="M29.82 79.6936C31.2666 78.4588 31.9081 76.834 31.253 76.0645C30.5978 75.2951 28.894 75.6724 27.4474 76.9072C26.0008 78.142 25.3593 79.7668 26.0144 80.5363C26.6696 81.3057 28.3735 80.9285 29.82 79.6936Z" fill="#D6EA98"/>
<path d="M54.4414 49.7274C55.6563 44.5759 52.4703 39.4136 47.3251 38.1971C42.1799 36.9807 37.0241 40.1708 35.8092 45.3223C34.5943 50.4739 37.7803 55.6362 42.9255 56.8526C48.0707 58.0691 53.2265 54.879 54.4414 49.7274Z" fill="#FF8500"/>
<path d="M43.2175 45.0103C44.6641 43.7755 45.3056 42.1507 44.6504 41.3812C43.9952 40.6118 42.2914 40.989 40.8448 42.2239C39.3983 43.4587 38.7567 45.0835 39.4119 45.8529C40.0671 46.6224 41.7709 46.2451 43.2175 45.0103Z" fill="#FFA750"/>
<path d="M62.5474 117.448C63.5065 112.243 60.0692 107.244 54.8701 106.284C49.6711 105.324 44.6789 108.765 43.7199 113.971C42.7608 119.176 46.1981 124.175 51.3972 125.135C56.5962 126.095 61.5884 122.654 62.5474 117.448Z" fill="#35C3EF"/>
<path d="M51.9501 109.631C52.5954 110.385 51.9501 112 50.5518 113.292C49.1536 114.477 47.4326 114.908 46.7873 114.046C46.1419 113.292 46.7873 111.677 48.1855 110.385C49.4762 109.2 51.1972 108.769 51.9501 109.631Z" fill="#5ED4EF"/>
<path d="M64.2788 91.2312C65.5186 86.0855 62.3574 80.9077 57.218 79.6664C52.0787 78.4251 46.9074 81.5903 45.6676 86.736C44.4279 91.8818 47.5891 97.0595 52.7285 98.3008C57.8678 99.5421 63.0391 96.377 64.2788 91.2312Z" fill="#B1D658"/>
<path d="M53.2712 86.925C54.7178 85.6901 55.3593 84.0653 54.7041 83.2959C54.0489 82.5264 52.3451 82.9037 50.8986 84.1385C49.452 85.3734 48.8104 86.9982 49.4656 87.7676C50.1208 88.5371 51.8246 88.1598 53.2712 86.925Z" fill="#D6EA98"/>
<path d="M64.8578 75.4923C70.1447 75.4923 74.4305 71.2011 74.4305 65.9077C74.4305 60.6142 70.1447 56.3231 64.8578 56.3231C59.571 56.3231 55.2852 60.6142 55.2852 65.9077C55.2852 71.2011 59.571 75.4923 64.8578 75.4923Z" fill="#FFD400"/>
<path d="M63.6794 63.7681C65.126 62.5333 65.7675 60.9085 65.1123 60.139C64.4571 59.3696 62.7533 59.7468 61.3068 60.9817C59.8602 62.2165 59.2186 63.8413 59.8738 64.6107C60.529 65.3802 62.2328 65.0029 63.6794 63.7681Z" fill="#FFE98D"/>
<path d="M82.2056 98.2262C83.3957 93.0688 80.1847 87.922 75.0337 86.7304C69.8828 85.5389 64.7423 88.7538 63.5523 93.9112C62.3622 99.0686 65.5731 104.215 70.7241 105.407C75.8751 106.599 81.0155 103.384 82.2056 98.2262Z" fill="#FFD400"/>
<path d="M71.1862 94.5625C72.6328 93.3277 73.2744 91.7029 72.6192 90.9334C71.964 90.164 70.2602 90.5413 68.8136 91.7761C67.367 93.0109 66.7255 94.6357 67.3807 95.4052C68.0358 96.1746 69.7397 95.7974 71.1862 94.5625Z" fill="#FFE98D"/>
<path d="M118.423 44.3866C119.638 39.235 116.452 34.0727 111.307 32.8563C106.161 31.6399 101.006 34.8299 99.7906 39.9815C98.5757 45.1331 101.762 50.2954 106.907 51.5118C112.052 52.7282 117.208 49.5382 118.423 44.3866Z" fill="#FFD400"/>
<path d="M106.722 40.2556C108.169 39.0208 108.81 37.396 108.155 36.6266C107.5 35.8571 105.796 36.2344 104.35 37.4692C102.903 38.704 102.262 40.3288 102.917 41.0983C103.572 41.8677 105.276 41.4905 106.722 40.2556Z" fill="#FFE98D"/>
<path d="M116.873 105.189C118.088 100.038 114.902 94.8753 109.757 93.6589C104.612 92.4424 99.4557 95.6325 98.2408 100.784C97.0259 105.936 100.212 111.098 105.357 112.314C110.502 113.531 115.658 110.341 116.873 105.189Z" fill="#35C3EF"/>
<path d="M105.303 100.978C106.75 99.7428 107.392 98.1181 106.736 97.3486C106.081 96.5792 104.377 96.9564 102.931 98.1913C101.484 99.4261 100.843 101.051 101.498 101.82C102.153 102.59 103.857 102.213 105.303 100.978Z" fill="#5ED4EF"/>
<path d="M113.407 124.186C114.622 119.035 111.436 113.872 106.291 112.656C101.146 111.44 95.9899 114.63 94.775 119.781C93.5601 124.933 96.7462 130.095 101.891 131.311C107.036 132.528 112.192 129.338 113.407 124.186Z" fill="#F93838"/>
<path d="M103.148 116.2C103.794 116.954 103.148 118.569 101.75 119.862C100.352 121.046 98.6309 121.477 97.9855 120.615C97.3402 119.861 97.9855 118.246 99.3838 116.954C100.782 115.769 102.395 115.338 103.148 116.2Z" fill="#FF8D8D"/>
<path d="M80.0229 152.277C85.3097 152.277 89.5956 147.986 89.5956 142.692C89.5956 137.399 85.3097 133.108 80.0229 133.108C74.736 133.108 70.4502 137.399 70.4502 142.692C70.4502 147.986 74.736 152.277 80.0229 152.277Z" fill="#FFD400"/>
<path d="M78.945 139.983C80.3916 138.748 81.0332 137.123 80.378 136.354C79.7228 135.584 78.019 135.962 76.5724 137.196C75.1258 138.431 74.4843 140.056 75.1394 140.825C75.7946 141.595 77.4985 141.218 78.945 139.983Z" fill="#FFE98D"/>
<path d="M76.9042 25.2H71.096C69.6978 25.2 68.5146 24.0154 68.5146 22.6154H79.4856C79.4856 24.123 78.3024 25.2 76.9042 25.2Z" fill="#A39896"/>
<path d="M75.2905 24.123H72.6016V153.138H75.2905V24.123Z" fill="#A39896"/>
<path d="M73.3548 152.6C73.2472 152.6 73.1396 152.492 73.1396 152.385V26.1692C73.1396 26.0615 73.2472 25.9538 73.3548 25.9538C73.4623 25.9538 73.5699 26.0615 73.5699 26.1692V152.277C73.6775 152.492 73.4623 152.6 73.3548 152.6Z" fill="#CBC3C1"/>
<path d="M74.5374 152.6C74.4298 152.6 74.3223 152.492 74.3223 152.385V26.1692C74.3223 26.0615 74.4298 25.9538 74.5374 25.9538C74.6449 25.9538 74.7525 26.0615 74.7525 26.1692V152.277C74.7525 152.492 74.6449 152.6 74.5374 152.6Z" fill="#827877"/>
<path d="M75.0756 22.6154V24.123C75.0756 24.6615 74.6453 25.2 74 25.2H78.4099C78.9477 25.2 79.4855 24.7692 79.4855 24.123V22.6154H75.0756Z" fill="#827877"/>
<path d="M75.2905 25.2H72.6016V26.6H75.2905V25.2Z" fill="#827877"/>
<path d="M13.4452 105.538C18.9102 105.538 23.3405 101.103 23.3405 95.6308C23.3405 90.1589 18.9102 85.7231 13.4452 85.7231C7.9801 85.7231 3.5498 90.1589 3.5498 95.6308C3.5498 101.103 7.9801 105.538 13.4452 105.538Z" fill="#FF8500"/>
<path d="M12.7998 89.4923C13.4452 90.2461 12.7998 91.9692 11.4016 93.2615C9.89574 94.5538 8.17481 94.8769 7.52946 94.1231C6.88411 93.3692 7.52946 91.6461 8.92772 90.3538C10.4335 89.0615 12.1545 88.6308 12.7998 89.4923Z" fill="#FFA750"/>
<path d="M34.9584 69.6113C36.24 64.2921 32.9722 58.9399 27.6596 57.6567C22.347 56.3736 17.0014 59.6454 15.7199 64.9646C14.4383 70.2838 17.7061 75.6361 23.0187 76.9192C28.3313 78.2024 33.6769 74.9305 34.9584 69.6113Z" fill="#FFD400"/>
<path d="M24.2002 62.0308C24.8456 62.7846 24.2002 64.5077 22.8019 65.8C21.2961 67.0923 19.5752 67.4154 18.9299 66.6616C18.2845 65.9077 18.9299 64.1847 20.3281 62.8923C21.7264 61.6 23.4473 61.1693 24.2002 62.0308Z" fill="#FFE98D"/>
<path d="M27.7498 133.108C33.2149 133.108 37.6452 128.672 37.6452 123.2C37.6452 117.728 33.2149 113.292 27.7498 113.292C22.2848 113.292 17.8545 117.728 17.8545 123.2C17.8545 128.672 22.2848 133.108 27.7498 133.108Z" fill="#B1D658"/>
<path d="M25.7711 120.821C27.2177 119.586 27.828 117.925 27.1343 117.11C26.4405 116.295 24.7055 116.636 23.2589 117.871C21.8123 119.106 21.202 120.767 21.8958 121.582C22.5895 122.396 24.3245 122.056 25.7711 120.821Z" fill="#D6EA98"/>
<path d="M45.6043 108.446C51.0694 108.446 55.4997 104.01 55.4997 98.5384C55.4997 93.0666 51.0694 88.6307 45.6043 88.6307C40.1393 88.6307 35.709 93.0666 35.709 98.5384C35.709 104.01 40.1393 108.446 45.6043 108.446Z" fill="#F93838"/>
<path d="M43.4322 97.1017C44.8788 95.8668 45.4891 94.2054 44.7954 93.3906C44.1017 92.5759 42.3666 92.9165 40.92 94.1513C39.4735 95.3862 38.8632 97.0477 39.5569 97.8624C40.2506 98.6771 41.9857 98.3365 43.4322 97.1017Z" fill="#FF8D8D"/>
<path d="M49.1541 148.508C54.6192 148.508 59.0495 144.072 59.0495 138.6C59.0495 133.128 54.6192 128.692 49.1541 128.692C43.6891 128.692 39.2588 133.128 39.2588 138.6C39.2588 144.072 43.6891 148.508 49.1541 148.508Z" fill="#35C3EF"/>
<path d="M47.7559 133C48.4012 133.754 47.7559 135.477 46.3576 136.769C44.8518 138.062 43.1309 138.385 42.4855 137.631C41.8402 136.877 42.4855 135.154 43.8838 133.862C45.282 132.569 47.003 132.246 47.7559 133Z" fill="#5ED4EF"/>
<path d="M90.5798 111.23C91.7296 105.881 88.3307 100.611 82.9881 99.4596C77.6454 98.3084 72.3822 101.712 71.2324 107.061C70.0825 112.41 73.4815 117.68 78.8241 118.831C84.1667 119.982 89.4299 116.579 90.5798 111.23Z" fill="#B1D658"/>
<path d="M79.2633 106.713C80.7099 105.478 81.3202 103.816 80.6265 103.002C79.9327 102.187 78.1977 102.528 76.7511 103.762C75.3045 104.997 74.6942 106.659 75.3879 107.473C76.0817 108.288 77.8167 107.948 79.2633 106.713Z" fill="#D6EA98"/>
<path d="M101.377 141.96C102.252 136.559 98.5886 131.469 93.194 130.593C87.7995 129.716 82.7166 133.384 81.8411 138.786C80.9656 144.187 84.629 149.276 90.0236 150.153C95.4181 151.029 100.501 147.361 101.377 141.96Z" fill="#FF8500"/>
<path d="M89.5709 138.864C91.0175 137.629 91.6278 135.967 90.9341 135.152C90.2403 134.338 88.5053 134.678 87.0587 135.913C85.6121 137.148 85.0018 138.809 85.6956 139.624C86.3893 140.439 88.1243 140.098 89.5709 138.864Z" fill="#FFA750"/>
<path d="M129.3 92.4432C130.556 87.1179 127.262 81.7816 121.944 80.5242C116.625 79.2668 111.295 82.5644 110.04 87.8896C108.784 93.2148 112.077 98.5511 117.396 99.8085C122.714 101.066 128.044 97.7684 129.3 92.4432Z" fill="#B1D658"/>
<path d="M118.528 84.6462C119.174 85.4 118.528 87.1231 117.13 88.4154C115.624 89.7077 113.903 90.0308 113.258 89.277C112.613 88.5231 113.258 86.8 114.656 85.5077C116.162 84.1077 117.883 83.7847 118.528 84.6462Z" fill="#D6EA98"/>
<path d="M70.7733 88.9538C76.2383 88.9538 80.6686 84.518 80.6686 79.0461C80.6686 73.5743 76.2383 69.1384 70.7733 69.1384C65.3082 69.1384 60.8779 73.5743 60.8779 79.0461C60.8779 84.518 65.3082 88.9538 70.7733 88.9538Z" fill="#35C3EF"/>
<path d="M67.9557 76.2796C69.4023 75.0448 70.0126 73.3833 69.3188 72.5686C68.6251 71.7539 66.8901 72.0944 65.4435 73.3293C63.9969 74.5641 63.3866 76.2256 64.0803 77.0403C64.7741 77.855 66.5091 77.5144 67.9557 76.2796Z" fill="#5ED4EF"/>
<path d="M82.3018 41.1826C83.5577 35.8574 80.2642 30.5211 74.9456 29.2637C69.627 28.0063 64.2974 31.3039 63.0415 36.6291C61.7857 41.9543 65.0791 47.2906 70.3977 48.548C75.7163 49.8055 81.046 46.5079 82.3018 41.1826Z" fill="#B1D658"/>
<path d="M70.7379 36.9418C72.1845 35.7069 72.7948 34.0454 72.1011 33.2307C71.4073 32.416 69.6723 32.7566 68.2257 33.9914C66.7791 35.2263 66.1688 36.8878 66.8626 37.7025C67.5563 38.5172 69.2913 38.1766 70.7379 36.9418Z" fill="#D6EA98"/>
<path d="M119.282 75.8154C124.747 75.8154 129.177 71.3796 129.177 65.9077C129.177 60.4358 124.747 56 119.282 56C113.817 56 109.387 60.4358 109.387 65.9077C109.387 71.3796 113.817 75.8154 119.282 75.8154Z" fill="#F93838"/>
<path d="M116.992 63.733C118.438 62.4981 119.049 60.8366 118.355 60.0219C117.661 59.2072 115.926 59.5478 114.48 60.7826C113.033 62.0175 112.423 63.6789 113.116 64.4937C113.81 65.3084 115.545 64.9678 116.992 63.733Z" fill="#FF8D8D"/>
<path d="M119.282 133.108C124.747 133.108 129.177 128.672 129.177 123.2C129.177 117.728 124.747 113.292 119.282 113.292C113.817 113.292 109.387 117.728 109.387 123.2C109.387 128.672 113.817 133.108 119.282 133.108Z" fill="#FF8500"/>
<path d="M117.723 121.029C119.17 119.794 119.78 118.132 119.086 117.318C118.393 116.503 116.658 116.843 115.211 118.078C113.764 119.313 113.154 120.975 113.848 121.789C114.542 122.604 116.277 122.263 117.723 121.029Z" fill="#FFA750"/>
<path d="M90.7791 67.2C96.2442 67.2 100.674 62.7642 100.674 57.2923C100.674 51.8205 96.2442 47.3846 90.7791 47.3846C85.3141 47.3846 80.8838 51.8205 80.8838 57.2923C80.8838 62.7642 85.3141 67.2 90.7791 67.2Z" fill="#35C3EF"/>
<path d="M90.0264 50.5077C90.6717 51.2615 90.0264 52.9846 88.6281 54.2769C87.1223 55.5692 85.4014 55.8923 84.756 55.1385C84.1107 54.3846 84.756 52.6615 86.1543 51.3692C87.5525 50.0769 89.381 49.7538 90.0264 50.5077Z" fill="#5ED4EF"/>
<g opacity="0.44">
<g opacity="0.44">
<path opacity="0.44" d="M30.2236 71.723C34.526 62.1384 41.7324 54.0615 50.7672 48.6769L37.6451 35.8615C28.2876 42.9692 20.8661 52.4461 16.3486 63.5384C21.2963 66.5538 26.244 69.4615 30.2236 71.723Z" fill="white"/>
</g>
</g>
<g opacity="0.44">
<g opacity="0.44">
<path opacity="0.44" d="M25.599 93.0461C25.599 87.123 26.5671 81.523 28.3956 76.2461L13.9828 70.2153C12.2618 76.0307 11.4014 82.1692 11.4014 88.523C11.4014 112.108 23.7706 132.785 42.3781 144.415L49.1543 136.446C35.0642 127.292 25.599 111.246 25.599 93.0461Z" fill="white"/>
</g>
</g>
<g opacity="0.6">
<g opacity="0.6">
<path opacity="0.6" d="M109.494 36.1846L105.837 39.8462C119.282 51.9077 127.672 69.3539 127.672 88.8462C127.672 110.277 117.453 129.231 101.75 141.292L104.762 144.738C123.369 133.108 135.738 112.431 135.738 88.8462C135.631 67.3077 125.305 48.2462 109.494 36.1846Z" fill="#A7CFD8"/>
</g>
</g>
<path d="M14.9358 49.0826L16.5872 49.4495C17.1376 49.633 17.1376 50.367 16.5872 50.5505L14.9358 50.9174C13.8349 51.1009 13.1009 51.8349 12.9174 52.9358L12.5505 54.5872C12.367 55.1376 11.633 55.1376 11.4495 54.5872L11.0826 52.9358C10.8991 51.8349 10.1651 51.1009 9.06422 50.9174L7.41284 50.5505C6.86239 50.367 6.86239 49.633 7.41284 49.4495L9.06422 49.0826C10.1651 48.8991 10.8991 48.1651 11.0826 47.0642L11.4495 45.4128C11.633 44.8624 12.367 44.8624 12.5505 45.4128L12.9174 47.0642C13.1009 48.1651 13.8349 48.8991 14.9358 49.0826Z" fill="white"/>
<g opacity="0.64">
<path opacity="0.64" d="M73.9997 231C110.889 231 140.793 229.987 140.793 228.738C140.793 227.489 110.889 226.477 73.9997 226.477C37.1106 226.477 7.20605 227.489 7.20605 228.738C7.20605 229.987 37.1106 231 73.9997 231Z" fill="#E8DEA7"/>
</g>
<path d="M117.023 221.739H30.9768C29.3634 221.739 28.1803 223.354 28.3954 221.846L35.6018 156.369H112.398L119.605 221.846C119.82 223.354 118.637 221.739 117.023 221.739Z" fill="#EC3226"/>
<path d="M25.3839 221.846C25.1688 223.354 26.4595 221.739 27.9653 221.739L25.3839 221.846Z" fill="#ED1B4D"/>
<path d="M116.594 221.846L109.387 156.369H78.1953L85.4017 221.739H114.012C115.626 221.739 116.809 223.354 116.594 221.846Z" fill="#E53333"/>
<path d="M107.666 221.846L100.459 156.369H69.2676L76.474 221.739H105.084C106.59 221.739 107.881 223.354 107.666 221.846Z" fill="#DD1F1B"/>
<path d="M89.5956 219.692H56.145C54.6392 219.692 53.4561 218.508 53.4561 217V158.954C53.4561 157.446 54.6392 156.262 56.145 156.262H89.5956C91.1014 156.262 92.2845 157.446 92.2845 158.954V217C92.2845 218.508 91.1014 219.692 89.5956 219.692Z" fill="#C11111"/>
<path d="M115.302 221.846L108.096 156.369H99.4912L106.698 221.739H112.721C114.227 221.739 115.41 223.354 115.302 221.846Z" fill="#DD1F1B"/>
<g opacity="0.5">
<path opacity="0.5" d="M40.0114 189.108L37.2149 214.523C37.1073 215.385 36.3544 216.138 35.3864 216.138C34.3108 216.138 33.4504 215.169 33.5579 214.092L36.3544 188.677C36.462 187.815 37.2149 187.062 38.1829 187.062C39.2585 187.062 40.119 188.031 40.0114 189.108Z" fill="#FF8DAE"/>
</g>
<g opacity="0.5">
<path opacity="0.5" d="M41.9478 171.231L40.7647 182.323C40.6571 183.185 39.9042 183.938 38.9362 183.938C37.8606 183.938 37.0002 182.969 37.1077 181.892L38.2909 170.8C38.3984 169.938 39.1513 169.185 40.1194 169.185C41.1949 169.185 42.0554 170.154 41.9478 171.231Z" fill="#FF8DAE"/>
</g>
<path d="M112.398 161.431H35.6014C33.1276 161.431 31.084 159.385 31.084 156.908C31.084 154.431 33.1276 152.385 35.6014 152.385H112.398C114.872 152.385 116.915 154.431 116.915 156.908C116.915 159.385 114.872 161.431 112.398 161.431Z" fill="#CBC3C1"/>
<path d="M35.6014 154.646H112.398C114.442 154.646 116.27 156.046 116.808 157.985C116.915 157.554 116.915 157.231 116.915 156.8C116.915 154.323 114.872 152.277 112.398 152.277H35.6014C33.1276 152.277 31.084 154.323 31.084 156.8C31.084 157.231 31.1915 157.554 31.1915 157.985C31.7293 156.046 33.5578 154.646 35.6014 154.646Z" fill="#E9E1DE"/>
<path d="M113.367 165.2H92.1777V161.431H112.936L113.367 165.2Z" fill="#C11111"/>
<path d="M55.6076 165.2H34.6338L35.064 161.431H55.1774L55.6076 165.2Z" fill="#C11111"/>
<path d="M89.4881 219.692H58.5114C57.3282 219.692 56.4678 218.723 56.4678 217.646V159.062C56.4678 157.877 57.4358 157.015 58.5114 157.015H89.4881C90.6713 157.015 91.5317 157.985 91.5317 159.062V217.646C91.6393 218.723 90.6713 219.692 89.4881 219.692Z" fill="#ADA4A1"/>
<path d="M74.0004 188.031C81.4258 188.031 87.4452 182.004 87.4452 174.569C87.4452 167.135 81.4258 161.108 74.0004 161.108C66.5751 161.108 60.5557 167.135 60.5557 174.569C60.5557 182.004 66.5751 188.031 74.0004 188.031Z" fill="#DDD6D4"/>
<path d="M74.0003 188.677C66.2561 188.677 59.9102 182.323 59.9102 174.569C59.9102 166.815 66.2561 160.462 74.0003 160.462C81.7445 160.462 88.0904 166.815 88.0904 174.569C88.0904 182.323 81.7445 188.677 74.0003 188.677ZM74.0003 161.754C67.009 161.754 61.3084 167.462 61.3084 174.462C61.3084 181.462 67.009 187.169 74.0003 187.169C80.9916 187.169 86.6921 181.462 86.6921 174.462C86.6921 167.569 80.9916 161.754 74.0003 161.754Z" fill="#BAB3B1"/>
<path d="M118.421 228.738H29.578C27.1042 228.738 25.0605 226.692 25.0605 224.215C25.0605 221.738 27.1042 219.692 29.578 219.692H118.529C121.002 219.692 123.046 221.738 123.046 224.215C123.046 226.692 121.002 228.738 118.421 228.738Z" fill="#CBC3C1"/>
<path d="M118.421 219.692H29.578C27.1042 219.692 25.0605 221.738 25.0605 224.215C25.0605 224.646 25.1681 225.077 25.2757 225.508C25.8135 223.569 27.5344 222.169 29.6855 222.169H118.636C120.68 222.169 122.508 223.569 123.046 225.508C123.154 225.077 123.261 224.646 123.261 224.215C123.046 221.738 121.002 219.692 118.421 219.692Z" fill="#E9E1DE"/>
<path d="M83.1423 156.154L80.8836 158.415L80.5609 158.738H67.4388L67.2237 158.415L64.8574 156.154H83.1423Z" fill="#282F39"/>
<path d="M88.1975 161.323C88.7321 161.323 89.1655 160.889 89.1655 160.354C89.1655 159.819 88.7321 159.385 88.1975 159.385C87.6629 159.385 87.2295 159.819 87.2295 160.354C87.2295 160.889 87.6629 161.323 88.1975 161.323Z" fill="#282F39"/>
<path d="M88.1975 218.077C88.7321 218.077 89.1655 217.643 89.1655 217.108C89.1655 216.572 88.7321 216.138 88.1975 216.138C87.6629 216.138 87.2295 216.572 87.2295 217.108C87.2295 217.643 87.6629 218.077 88.1975 218.077Z" fill="#282F39"/>
<path d="M59.802 161.323C60.3366 161.323 60.77 160.889 60.77 160.354C60.77 159.819 60.3366 159.385 59.802 159.385C59.2674 159.385 58.834 159.819 58.834 160.354C58.834 160.889 59.2674 161.323 59.802 161.323Z" fill="#282F39"/>
<path d="M59.802 218.077C60.3366 218.077 60.77 217.643 60.77 217.108C60.77 216.572 60.3366 216.138 59.802 216.138C59.2674 216.138 58.834 216.572 58.834 217.108C58.834 217.643 59.2674 218.077 59.802 218.077Z" fill="#282F39"/>
<path d="M86.3692 219.692H61.6309V209.462C61.6309 202.677 67.1163 197.077 74 197.077C80.7762 197.077 86.3692 202.569 86.3692 209.462V219.692Z" fill="#282F39"/>
<path d="M84.7556 172.631L73.9998 171.446L63.244 172.631C62.9213 172.631 62.5986 173.385 62.5986 174.246V174.892C62.5986 175.754 62.9213 176.508 63.244 176.508L73.9998 177.692L84.7556 176.508C85.0783 176.508 85.401 175.754 85.401 174.892V174.246C85.401 173.385 85.0783 172.631 84.7556 172.631Z" fill="#ED1B4D"/>
<path d="M73.9996 175.754C74.653 175.754 75.1827 175.224 75.1827 174.569C75.1827 173.915 74.653 173.385 73.9996 173.385C73.3461 173.385 72.8164 173.915 72.8164 174.569C72.8164 175.224 73.3461 175.754 73.9996 175.754Z" fill="#282F39"/>
<path d="M76.5398 219.254C81.7595 217.846 84.8511 212.468 83.4451 207.242C82.039 202.016 76.6679 198.92 71.4482 200.328C66.2285 201.736 63.1369 207.114 64.5429 212.34C65.9489 217.566 71.3201 220.662 76.5398 219.254Z" fill="#35C3EF"/>
<path d="M71.8502 208.447C73.2968 207.212 73.9071 205.55 73.2134 204.736C72.5196 203.921 70.7846 204.261 69.338 205.496C67.8914 206.731 67.2811 208.393 67.9749 209.207C68.6686 210.022 70.4036 209.681 71.8502 208.447Z" fill="#5ED4EF"/>
</svg>
